<?xml version="1.0" standalone="no"?>
<!DOCTYPE svg PUBLIC "-//W3C//DTD SVG 20010904//EN"
 "http://www.w3.org/TR/2001/REC-SVG-20010904/DTD/svg10.dtd">
<svg version="1.0" xmlns="http://www.w3.org/2000/svg"
 width="1600.000000pt" height="407.000000pt" viewBox="0 0 1600.000000 407.000000"
 preserveAspectRatio="xMidYMid meet">

<g transform="translate(0.000000,407.000000) scale(0.100000,-0.100000)"
fill="#2F84EA" stroke="none">
<path d="M10 2045 l0 -2017 1418 6 c779 3 1845 8 2367 11 762 4 2956 12 5002
19 156 1 283 4 283 7 0 4 -15 40 -34 80 -19 41 -61 133 -94 204 -33 72 -74
160 -91 197 -17 36 -31 69 -31 71 0 3 -30 68 -66 144 -37 76 -83 176 -104 223
-83 186 -244 540 -285 625 -62 129 -111 236 -160 350 -39 90 -149 332 -209
460 -69 145 -165 354 -213 465 -30 69 -65 143 -77 165 -13 22 -67 139 -121
260 -53 121 -131 292 -172 381 l-76 161 -266 7 c-382 9 -3463 92 -4326 116
-984 27 -1693 48 -2025 60 -151 5 -375 12 -497 16 l-223 6 0 -2017z"/>
</g>
</svg>
