<svg version="1.2" xmlns="http://www.w3.org/2000/svg" viewBox="0 0 1124 463" width="1124" height="463"><defs><clipPath clipPathUnits="userSpaceOnUse" id="cp1"><path d="m1123.2 497h-1123.2v-576h1123.2z"/></clipPath><linearGradient id="P" gradientUnits="userSpaceOnUse"/><radialGradient id="g1" cx="0" cy="0" r="1" href="#P" gradientTransform="matrix(489.221,0,0,489.221,275.151,181.593)"><stop offset=".2" stop-color="#9c9c9c"/><stop offset=".99" stop-color="#1026c9"/><stop offset="1" stop-color="#1026c9"/></radialGradient><radialGradient id="g2" cx="0" cy="0" r="1" href="#P" gradientTransform="matrix(387.211,0,0,387.211,141.408,326.936)"><stop offset=".2" stop-color="#9c9c9c"/><stop offset="1" stop-color="#3f43ff"/></radialGradient><radialGradient id="g3" cx="0" cy="0" r="1" href="#P" gradientTransform="matrix(401.417,0,0,401.417,195.478,305.807)"><stop offset=".2" stop-color="#9c9c9c"/><stop offset="1" stop-color="#363cf1"/></radialGradient><radialGradient id="g4" cx="0" cy="0" r="1" href="#P" gradientTransform="matrix(310.974,0,0,310.974,466.564,224.73)"><stop offset=".2" stop-color="#9c9c9c"/><stop offset="1" stop-color="#353cf6"/></radialGradient><radialGradient id="g5" cx="0" cy="0" r="1" href="#P" gradientTransform="matrix(306.982,0,0,306.982,315.593,365.872)"><stop offset=".2" stop-color="#9c9c9c"/><stop offset="1" stop-color="#353cf6"/></radialGradient><radialGradient id="g6" cx="0" cy="0" r="1" href="#P" gradientTransform="matrix(272.876,0,0,272.876,610.186,86.664)"><stop offset=".36" stop-color="#d1d1d1"/><stop offset="1" stop-color="#363cf1"/></radialGradient><radialGradient id="g7" cx="0" cy="0" r="1" href="#P" gradientTransform="matrix(344.192,0,0,344.192,455.353,121.274)"><stop offset=".36" stop-color="#d1d1d1"/><stop offset="1" stop-color="#353cf6"/></radialGradient><radialGradient id="g8" cx="0" cy="0" r="1" href="#P" gradientTransform="matrix(356.819,0,0,356.819,503.416,140.056)"><stop offset=".36" stop-color="#d1d1d1"/><stop offset="1" stop-color="#353cf6"/></radialGradient><radialGradient id="g9" cx="0" cy="0" r="1" href="#P" gradientTransform="matrix(434.869,0,0,434.869,574.237,250.469)"><stop offset=".36" stop-color="#d1d1d1"/><stop offset="1" stop-color="#353cf6"/></radialGradient><radialGradient id="g10" cx="0" cy="0" r="1" href="#P" gradientTransform="matrix(276.425,0,0,276.425,744.384,212.125)"><stop offset=".36" stop-color="#d1d1d1"/><stop offset="1" stop-color="#353cf6"/></radialGradient></defs><style>.a{fill:url(#g1)}.b{fill:url(#g2)}.c{fill:url(#g3)}.d{fill:url(#g4)}.e{fill:url(#g5)}.f{fill:url(#g6)}.g{fill:url(#g7)}.h{fill:url(#g8)}.i{fill:url(#g9)}.j{fill:url(#g10)}</style><g clip-path="url(#cp1)"><g style="mix-blend-mode:color-dodge"><path fill-rule="evenodd" class="a" d="m937.7 297.4c-2.4 0-4.4-1.7-4.9-3.9h-45.7l-20.2-20.3h-132.1l-20.7-20.6h-187.8l-22.9 22.9h132.6l42.2 42.2h171.6l35.9 36c2-1.3 4.6-1.1 6.3 0.7 2 1.9 2 5.2 0 7.1-1.9 2-5.2 2-7.1 0-1.8-1.7-2-4.3-0.7-6.3l-35.3-35.2h-171.6l-42.3-42.3h-133.9l-13.7 13.8h-430.5l-106-106h-333.4c-0.5 2.2-2.5 3.9-4.9 3.9-2.8 0-5.1-2.3-5.1-5.1 0-2.8 2.3-5 5.1-5 2.4 0 4.4 1.7 4.9 3.9h334.3l8.4 8.4h205.2l43.1-43.1h120l-0.2-0.3 34.9-34.9h178.8l13.3-13.3h159.2l-46.2-46.2h-116.6l-22.7-22.7h-217l-26.5 26.5h-36.8l-59.8 59.7h95.1l41.9-41.9h115.1c0.5-2.3 2.5-4 4.9-4 2.8 0 5.1 2.3 5.1 5.1 0 2.8-2.3 5.1-5.1 5.1-2.4 0-4.4-1.7-4.9-4h-114.2l-41.9 42h-158.1l-31.2 31.1h-343.1v-1.3l-33.7 33.7-1.6-1.6 100.1-100.1h114.4l-1.5-1.5 52.4-52.4h222.9l23.4-23.4h344.4c0.6-2.2 2.6-3.9 5-3.9 2.8 0 5.1 2.2 5.1 5 0 2.8-2.3 5.1-5.1 5.1-2.4 0-4.4-1.7-5-3.9h-343.5l-77.3 77.2h-334.3l-64.8 64.9h81.3l40.1-40.1h164.8c0.5-2.3 2.5-4 4.9-4 2.8 0 5.1 2.3 5.1 5.1 0 2.8-2.3 5.1-5.1 5.1-2.4 0-4.4-1.7-4.9-4h-163.9l-37.8 37.9h256.8l31.1-31.2h62.9l-1.5-1.4 60.5-60.6h36.9l26.5-26.5h218.8l22.7 22.7h116.6l48.1 48.1-0.4 0.4h97.9c0.5-2.3 2.5-4 4.9-4 2.8 0 5.1 2.3 5.1 5.1 0 2.8-2.3 5.1-5.1 5.1-2.4 0-4.4-1.7-4.9-4h-258.5l-12.5 12.5v0.8h-0.8l-35.2 35.2h-298.4l-43.1 43.2h-203.8l27.8 27.8v-1.9h209.8l37.7-37.8h294.8l34.1-34.1h159.1l19.3 19.3c2-1.2 4.6-1 6.3 0.7 2 2 2 5.2 0 7.2-2 1.9-5.2 1.9-7.2 0-1.7-1.7-1.9-4.4-0.7-6.3l-18.6-18.6h-157.2l-34.2 34.1h-294.7l-37.8 37.7h-210.4l67.3 67.3h428.6l12.4-12.5v-1.3h1.3l25.2-25.2h189.6l20.7 20.7h132.1l20.2 20.2h44.8c0.5-2.2 2.5-3.9 4.9-3.9 2.8 0 5.1 2.2 5.1 5 0 2.8-2.3 5.1-5.1 5.1zm-734.4-267.7h-219.7l-51.7 51.7h219.7zm336.5 85.8h-175.6l-33 32.9h175.7z"/><path class="b" d="m-389.7 246.7h299.6l118.6 118.6h479.3l32.3 32.4h130.6l4 4c2-1.2 4.6-1 6.3 0.7 2 2 2 5.2 0 7.2-2 2-5.2 2-7.2 0-1.7-1.7-1.9-4.3-0.7-6.3l-3.3-3.3h-130.6l-32.4-32.4h-479.2l-118.6-118.6h-298.7c-0.5 2.2-2.5 3.9-4.9 3.9-2.8 0-5.1-2.2-5.1-5 0-2.8 2.3-5.1 5.1-5.1 2.4 0 4.4 1.7 4.9 3.9z"/><path class="c" d="m724.9 367h-166l-28.1-28.2h-479.3l-117.4-117.4h-289c-0.5 2.3-2.5 3.9-5 3.9-2.8 0-5-2.2-5-5 0-2.8 2.2-5.1 5-5.1 2.5 0 4.5 1.7 5 3.9h290l117.4 117.5h479.2l28.2 28.1h165.9l22.3 22.4c2-1.3 4.6-1.1 6.3 0.7 2 1.9 2 5.2 0 7.1-2 2-5.2 2-7.2 0-1.7-1.7-1.9-4.3-0.7-6.3z"/><path class="d" d="m896.4 256.5c-1.7-1.7-1.9-4.3-0.7-6.3l-10.9-10.9h-143.1l-45.6-45.6h-128l-32.8 32.8h-238.1l-31.5 31.5h-237.7v-2.3h236.8l31.5-31.4h238.1l32.8-32.8h129.9l45.6 45.6h143.1l11.5 11.5c2-1.2 4.6-1 6.3 0.7 2 2 2 5.2 0 7.2-2 2-5.2 2-7.2 0z"/><path class="e" d="m-99 270.6c1.7 1.7 2 4.4 0.7 6.3l124.4 124.4h323.5l21.1 21.1v-0.7h350.3l10 10c2-1.2 4.6-1 6.3 0.7 2 2 2 5.2 0 7.2-2 1.9-5.2 1.9-7.1 0-1.8-1.7-2-4.4-0.7-6.3l-9.4-9.4h-347.9l32.5 32.5h257.9c0.5-2.3 2.5-3.9 5-3.9 2.8 0 5 2.2 5 5 0 2.8-2.2 5.1-5 5.1-2.5 0-4.5-1.7-5-3.9h-258.8l-55.1-55.2h-323.5l-125.1-125c-1.9 1.2-4.5 1-6.2-0.7-2-2-2-5.2 0-7.2 1.9-2 5.2-2 7.1 0z"/><path class="f" d="m985.1 21.2c-1.8-1.8-4.7-1.8-6.4 0-1.5 1.5-1.7 3.8-0.6 5.5l-8.4 8.4h-309.2l28.9-28.9h229.3c0.4 2 2.2 3.5 4.3 3.5 2.5 0 4.6-2 4.6-4.5 0-2.5-2.1-4.5-4.6-4.5-2.1 0-3.9 1.5-4.3 3.5h-230.1l-49 49h-287.6l-16.7 16.7h2.8l14.8-14.7h287.5l18.8-18.8v0.7h311.4l8.9-8.9c1.7 1.1 4.1 0.9 5.6-0.7 1.7-1.7 1.7-4.6 0-6.3z"/><path class="g" d="m-16.7 192.6h266.3l105.4-105.5h426l28.8-28.7h116l3.6-3.6c1.8 1.1 4.1 0.9 5.6-0.6 1.8-1.8 1.8-4.7 0-6.4-1.8-1.8-4.6-1.8-6.4 0-1.5 1.5-1.7 3.8-0.6 5.6l-3 3h-116.1l-28.7 28.7h-426l-105.5 105.5h-265.4c-0.5-2-2.3-3.5-4.4-3.5-2.5 0-4.5 2-4.5 4.5 0 2.5 2 4.5 4.5 4.5 2.1 0 3.9-1.5 4.4-3.5z"/><path class="h" d="m974 85.7h-147.5l-25 25h-426l-104.4 104.4h-256.9c-0.5-2-2.3-3.5-4.4-3.5-2.5 0-4.5 2-4.5 4.5 0 2.5 2 4.5 4.5 4.5 2.1 0 3.9-1.5 4.4-3.5h257.7l104.4-104.4h426l25-25h147.5l19.9-19.9c1.7 1.1 4 0.9 5.5-0.6 1.8-1.8 1.8-4.6 0-6.4-1.7-1.7-4.6-1.7-6.3 0-1.6 1.6-1.8 3.9-0.7 5.6z"/><path fill-rule="evenodd" class="i" d="m1167.7 152c0 2.5-2 4.5-4.5 4.5-2.1 0-3.9-1.5-4.4-3.5h-39.8l-18 18h-117.4l-18.4 18.4h-168.5l-22.4-22.4h-1.2v-1.2l-11-11h-381l-59.8 59.7h187.1l33.5 33.6h262l30.3 30.3h139.8l16.6-16.5c-1.1-1.8-0.9-4.1 0.6-5.6 1.8-1.8 4.6-1.8 6.4 0 1.7 1.7 1.7 4.6 0 6.4-1.5 1.5-3.9 1.7-5.6 0.6l-17.2 17.1h-141.4l-30.3-30.3h-262l-33.6-33.6h-186.5v-1.7l-24.7 24.8h181.2l38.3 38.3h265.2l31.3 31.3h0.8v0.8l11 11h229.8c0.5-2 2.3-3.5 4.4-3.5 2.5 0 4.5 2 4.5 4.5 0 2.5-2 4.5-4.5 4.5-2.1 0-3.9-1.5-4.4-3.5h-87l0.3 0.4-42.7 42.7h-103.6l-20.2 20.2h-194.5l-23.6-23.6h-32.7l-53.8-53.8 1.3-1.3h-55.9l-27.7-27.7h-228.3l33.7 33.7h145.6c0.5-2 2.3-3.5 4.4-3.5 2.5 0 4.6 2 4.6 4.5 0 2.5-2.1 4.5-4.6 4.5-2.1 0-3.9-1.5-4.4-3.5h-146.4l-35.7-35.7h-72.2l57.6 57.6h297.1l68.7 68.7h305.4c0.5-2 2.3-3.5 4.4-3.5 2.5 0 4.5 2 4.5 4.5 0 2.5-2 4.5-4.5 4.5-2.1 0-3.9-1.5-4.4-3.5h-306.2l-20.8-20.7h-198.1l-46.6-46.7 1.3-1.3h-101.6l-89-88.9 1.4-1.4 29.9 29.9v-1.2h305l27.7 27.7h140.6l37.3 37.3h101.4c0.5-2 2.3-3.5 4.4-3.5 2.5 0 4.5 2 4.5 4.5 0 2.5-2 4.5-4.5 4.5-2.1 0-3.9-1.5-4.4-3.5h-102.2l-37.3-37.3h-84.5l53.1 53.1h32.7l23.6 23.6h192.9l20.1-20.2h103.7l41.1-41.1h-141.5l-11.8-11.8h-159l-31-31.1 0.2-0.2h-106.7l-38.4-38.3h-182.3l-7.5 7.4h-297.1c-0.5 2-2.3 3.5-4.4 3.5-2.5 0-4.5-2-4.5-4.5 0-2.5 2-4.5 4.5-4.5 2.1 0 3.9 1.5 4.4 3.5h296.3l94.3-94.2h382.6l12.2 12.2h119l37.6-37.5h152.5l31.4-31.4c-1.1-1.7-0.9-4.1 0.6-5.6 1.8-1.7 4.6-1.7 6.4 0 1.7 1.8 1.7 4.6 0 6.4-1.5 1.5-3.9 1.7-5.6 0.6l-31.9 32h-152.6l-37.5 37.5h-117.9l20.4 20.4h166.9l18.4-18.4h117.4l18-18h40.6c0.5-2 2.3-3.5 4.4-3.5 2.5 0 4.5 2 4.5 4.5zm-703.3 187.5h-195.3l46 46h195.2zm315.8-59.7h-156.1l29.3 29.3h156.1z"/><path class="j" d="m1126.5 183.9c-1.5 1.5-1.7 3.8-0.6 5.6l-9.7 9.6h-127.2l-40.6 40.6h-113.8l-29.1-29.2h-211.7l-27.9-27.9h-211.3v2h210.4l28 27.9h211.7l29.1 29.2h115.5l40.5-40.6h127.2l10.3-10.2c1.7 1.1 4 0.9 5.6-0.6 1.7-1.8 1.7-4.7 0-6.4-1.8-1.8-4.6-1.8-6.4 0z"/></g></g></svg>